<svg fill="none" height="128" viewBox="0 0 128 128" width="128" xmlns="http://www.w3.org/2000/svg"><path d="m16.176 75.288c-2.112 0-3.744-.256-4.896-.768s-1.97333-1.376-2.464-2.592c-.46933-1.2373-.704-2.9867-.704-5.248 0-2.304.23467-4.0853.704-5.344.49067-1.2587 1.3013-2.144 2.432-2.656 1.152-.5333 2.7733-.8 4.864-.8 1.8347 0 3.2533.1813 4.256.544s1.7173.9813 2.144 1.856c.448.8533.6933 2.0693.736 3.648h-3.872c-.1493-1.0453-.448-1.7493-.896-2.112-.4267-.384-1.152-.576-2.176-.576-1.1307 0-2.0053.1707-2.624.512-.5973.32-1.024.8747-1.28 1.664-.256.768-.384 1.8667-.384 3.296 0 1.3653.128 2.4213.384 3.168s.6933 1.28 1.312 1.6c.6187.2987 1.4933.448 2.624.448.9813 0 1.6853-.16 2.112-.48.448-.3413.768-.96.96-1.856h3.84c-.0427 1.4933-.288 2.6453-.736 3.456-.4267.8107-1.1413 1.3867-2.144 1.728-.9813.3413-2.3787.512-4.192.512zm17.1075 0c-1.5573 0-2.7627-.1493-3.616-.448-.832-.32-1.4293-.8427-1.792-1.568-.3413-.7467-.512-1.792-.512-3.136 0-1.5787.2453-2.7947.736-3.648.4907-.8747 1.3227-1.4933 2.496-1.856s2.8373-.544 4.992-.544h2.528v-.192c0-1.0667-.2347-1.792-.704-2.176s-1.3547-.576-2.656-.576c-1.1733 0-1.9733.16-2.4.48-.4053.2987-.5867.8853-.544 1.76h-3.904c-.064-1.4507.096-2.56.48-3.328.4053-.7893 1.0987-1.344 2.08-1.664 1.0027-.3413 2.432-.512 4.288-.512s3.2853.1813 4.288.544c1.024.3627 1.7493.9707 2.176 1.824s.64 2.0693.64 3.648v11.104h-3.648v-1.984h-.256c-.5973.8747-1.2267 1.472-1.888 1.792s-1.5893.48-2.784.48zm-2.016-5.44c0 .8107.1813 1.3653.544 1.664.384.2987 1.0987.448 2.144.448 1.0667 0 1.888-.1387 2.464-.416s.9813-.7467 1.216-1.408c.256-.6613.4053-1.6107.448-2.848l-3.168.032c-.96.0213-1.7067.1067-2.24.256-.512.1493-.8747.4053-1.088.768-.2133.3413-.32.8427-.32 1.504zm15.2515 1.824h5.856v-16.64h-5.536v-3.328h9.376v19.968h5.472v3.328h-15.168zm27.9235 3.648c-1.0453 0-1.888-.1387-2.528-.416-.6187-.2987-1.28-.8533-1.984-1.664h-.256v1.76h-3.872l.032-23.296h3.872l-.032 7.872h.256c.576-.7893 1.184-1.3333 1.824-1.632s1.536-.448 2.688-.448c1.8347 0 3.2427.2667 4.224.8 1.0027.5333 1.7067 1.44 2.112 2.72.4267 1.2587.64 3.0507.64 5.376 0 2.3467-.2133 4.16-.64 5.44-.4053 1.2587-1.1093 2.1547-2.112 2.688-.9813.5333-2.3893.8-4.224.8zm-4.832-8.928c0 1.4507.1067 2.5813.32 3.392.2347.7893.6187 1.3547 1.152 1.696.5333.32 1.2907.48 2.272.48 1.088 0 1.92-.16 2.496-.48.5973-.3413 1.0133-.9067 1.248-1.696.256-.7893.384-1.92.384-3.392 0-1.4507-.128-2.5707-.384-3.36-.2347-.7893-.6507-1.344-1.248-1.664-.576-.3413-1.408-.512-2.496-.512-.9813 0-1.7387.1707-2.272.512-.5333.32-.9173.8747-1.152 1.664-.2133.7893-.32 1.9093-.32 3.36zm23.3155 8.896c-2.112 0-3.744-.256-4.896-.768s-1.9733-1.376-2.464-2.592c-.4693-1.2373-.704-2.9867-.704-5.248 0-2.304.2347-4.0853.704-5.344.4907-1.2587 1.3013-2.144 2.432-2.656 1.152-.5333 2.7733-.8 4.864-.8 1.8347 0 3.2533.1813 4.256.544s1.7173.9813 2.144 1.856c.448.8533.6933 2.0693.736 3.648h-3.872c-.1493-1.0453-.448-1.7493-.896-2.112-.4267-.384-1.152-.576-2.176-.576-1.1307 0-2.0053.1707-2.624.512-.5973.32-1.024.8747-1.28 1.664-.256.768-.384 1.8667-.384 3.296 0 1.3653.128 2.4213.384 3.168s.6933 1.28 1.312 1.6c.6187.2987 1.4933.448 2.624.448.9813 0 1.6853-.16 2.112-.48.448-.3413.768-.96.96-1.856h3.84c-.0427 1.4933-.288 2.6453-.736 3.456-.4267.8107-1.1413 1.3867-2.144 1.728-.9813.3413-2.3787.512-4.192.512zm11.188-23.584h3.904v8.832h.256c.533-1.0027 1.13-1.696 1.792-2.08.661-.384 1.578-.576 2.752-.576 1.642 0 2.901.192 3.776.576.874.384 1.493 1.0453 1.856 1.984.384.9173.576 2.2293.576 3.936v10.624h-3.904v-10.688c0-1.1947-.224-2.0053-.672-2.432-.427-.448-1.248-.672-2.464-.672-1.046 0-1.856.1493-2.432.448-.555.2987-.95.8107-1.184 1.536-.235.7253-.352 1.76-.352 3.104v8.704h-3.904z" fill="#fff"/></svg>